<?xml version="1.0" encoding="UTF-8" standalone="no"?>
<!DOCTYPE svg PUBLIC "-//W3C//DTD SVG 1.1//EN" "http://www.w3.org/Graphics/SVG/1.1/DTD/svg11.dtd">
<svg xmlns="http://www.w3.org/2000/svg" version="1.1" viewBox="0.00 0.00 800.00 800.00">
<g stroke-width="2.00" fill="none" stroke-linecap="butt">
<path stroke="#c1c9c0" vector-effect="non-scaling-stroke" d="
  M 271.25 496.83
  A 2.29 2.24 -12.5 0 1 272.00 495.68
  Q 285.12 484.69 300.64 477.66
  Q 321.20 468.34 342.27 463.79
  C 349.67 462.20 357.13 460.39 364.52 459.18
  Q 387.81 455.34 411.38 452.37
  C 416.20 451.76 421.01 450.85 425.79 450.19
  C 428.12 449.86 429.77 448.32 432.17 448.05
  Q 454.16 445.58 474.59 438.01
  Q 523.09 420.05 559.47 382.98
  C 603.12 338.49 631.27 275.29 620.37 212.81
  C 614.45 178.83 596.54 148.51 568.50 128.70
  Q 548.87 114.83 526.63 108.94
  Q 491.47 99.64 454.41 106.35
  Q 439.66 109.01 428.26 112.83
  Q 383.38 127.85 347.90 159.74
  C 309.81 193.97 281.25 241.05 275.19 292.48
  Q 273.56 306.36 273.54 306.50
  C 269.21 337.88 265.47 369.46 256.24 400.05
  C 250.39 419.44 241.71 438.07 228.86 453.12
  A 1.54 1.53 -76.8 0 1 228.06 453.62
  Q 224.11 454.61 221.51 457.22
  Q 168.23 510.61 115.62 563.11
  C 110.43 568.29 106.71 574.97 105.85 582.24
  Q 103.84 599.39 115.77 610.48
  C 128.81 622.61 148.71 622.18 161.26 609.63
  Q 212.72 558.14 267.21 503.66
  Q 270.16 500.71 271.25 496.83"
/>
<path stroke="#c1c9c0" vector-effect="non-scaling-stroke" d="
  M 476.39 520.48
  A 0.35 0.35 0.0 0 0 476.44 520.97
  L 480.00 523.83
  A 0.35 0.35 0.0 0 0 480.48 523.79
  L 489.36 514.13
  A 0.35 0.35 0.0 0 0 489.32 513.62
  L 485.08 510.24
  A 0.35 0.35 0.0 0 0 484.59 510.29
  L 476.39 520.48"
/>
<path stroke="#c1c9c0" vector-effect="non-scaling-stroke" d="
  M 569.21 520.45
  A 0.39 0.39 0.0 0 0 569.27 521.00
  L 572.85 523.82
  A 0.39 0.39 0.0 0 0 573.38 523.77
  L 582.10 514.19
  A 0.39 0.39 0.0 0 0 582.06 513.63
  L 577.99 510.24
  A 0.39 0.39 0.0 0 0 577.44 510.30
  L 569.21 520.45"
/>
<path stroke="#c1c9c0" vector-effect="non-scaling-stroke" d="
  M 275.90 523.00
  A 0.36 0.36 0.0 0 1 276.26 523.36
  L 276.25 559.64
  A 0.36 0.36 0.0 0 0 276.61 560.00
  L 282.39 560.00
  A 0.36 0.36 0.0 0 0 282.75 559.64
  L 282.75 523.36
  A 0.36 0.36 0.0 0 1 283.11 523.00
  L 294.38 522.99
  A 0.36 0.36 0.0 0 0 294.74 522.63
  L 294.75 517.56
  A 0.36 0.36 0.0 0 0 294.39 517.20
  L 264.62 517.21
  A 0.36 0.36 0.0 0 0 264.26 517.57
  L 264.25 522.64
  A 0.36 0.36 0.0 0 0 264.61 523.00
  L 275.90 523.00"
/>
<path stroke="#c1c9c0" vector-effect="non-scaling-stroke" d="
  M 367.3352 517.6442
  A 0.44 0.44 0.0 0 0 366.8944 517.2050
  L 361.1144 517.2150
  A 0.44 0.44 0.0 0 0 360.6752 517.6558
  L 360.6848 523.1958
  A 0.44 0.44 0.0 0 0 361.1256 523.6350
  L 366.9056 523.6250
  A 0.44 0.44 0.0 0 0 367.3448 523.1842
  L 367.3352 517.6442"
/>
<path stroke="#c1c9c0" vector-effect="non-scaling-stroke" d="
  M 632.8000 517.5688
  A 0.37 0.37 0.0 0 0 632.4287 517.2001
  L 626.7688 517.2199
  A 0.37 0.37 0.0 0 0 626.4001 517.5912
  L 626.4200 523.2912
  A 0.37 0.37 0.0 0 0 626.7913 523.6599
  L 632.4512 523.6401
  A 0.37 0.37 0.0 0 0 632.8199 523.2688
  L 632.8000 517.5688"
/>
<path stroke="#c1c9c0" vector-effect="non-scaling-stroke" d="
  M 681.48 542.99
  L 681.51 517.48
  Q 681.51 517.20 681.23 517.20
  L 674.97 517.25
  Q 674.84 517.25 674.84 517.38
  L 674.83 559.29
  Q 674.83 560.00 675.54 560.00
  L 681.01 559.99
  Q 681.51 559.99 681.51 559.49
  L 681.50 551.53
  A 0.74 0.71 66.1 0 1 681.67 551.06
  L 686.00 546.23
  A 0.54 0.53 -39.4 0 1 686.86 546.31
  L 694.98 559.79
  Q 695.11 560.02 695.38 560.01
  L 702.19 559.92
  Q 702.29 559.92 702.24 559.83
  Q 696.35 550.50 690.82 541.49
  Q 690.56 541.05 690.90 540.67
  L 700.44 529.99
  A 0.39 0.39 0.0 0 0 700.14 529.34
  L 693.83 529.37
  Q 693.28 529.37 692.92 529.80
  L 681.84 543.12
  Q 681.48 543.56 681.48 542.99"
/>
<path stroke="#c1c9c0" vector-effect="non-scaling-stroke" d="
  M 523.86 529.04
  L 523.59 521.25
  Q 523.57 520.51 522.83 520.53
  L 518.30 520.61
  A 0.75 0.74 6.6 0 0 517.59 521.17
  Q 516.76 524.43 516.78 527.84
  Q 516.79 528.55 516.39 529.14
  Q 516.12 529.54 515.65 529.65
  Q 514.79 529.85 514.73 530.73
  L 514.53 533.78
  Q 514.48 534.45 515.13 534.64
  L 516.35 534.99
  Q 516.88 535.14 516.90 535.69
  Q 517.24 543.32 517.16 552.81
  C 517.09 559.63 521.72 560.70 527.49 560.29
  Q 528.22 560.24 528.22 559.50
  L 528.19 555.08
  Q 528.19 554.23 527.33 554.23
  L 524.83 554.22
  A 1.13 1.13 0.0 0 1 523.70 553.08
  L 523.76 535.65
  Q 523.77 535.08 524.34 535.05
  L 527.48 534.92
  A 0.73 0.72 -6.6 0 0 528.16 534.07
  L 527.49 530.20
  Q 527.38 529.52 526.68 529.51
  L 524.30 529.47
  Q 523.88 529.47 523.86 529.04"
/>
<path stroke="#c1c9c0" vector-effect="non-scaling-stroke" d="
  M 302.02 547.34
  L 318.94 547.34
  Q 319.47 547.34 319.50 546.82
  Q 319.74 541.59 318.29 537.24
  C 315.72 529.54 308.31 527.26 301.24 530.10
  C 296.48 532.00 294.15 536.93 294.18 541.85
  C 294.20 544.51 294.08 547.20 294.34 549.81
  Q 295.00 556.35 300.32 558.96
  Q 309.57 563.50 318.61 556.14
  Q 318.81 555.98 318.64 555.79
  Q 316.74 553.75 314.66 551.93
  A 0.31 0.31 0.0 0 0 314.26 551.93
  Q 310.20 555.31 305.43 554.35
  Q 302.55 553.77 301.25 551.13
  Q 300.98 550.59 300.55 549.71
  Q 299.38 547.34 302.02 547.34"
/>
<path stroke="#c1c9c0" vector-effect="non-scaling-stroke" d="
  M 333.75 532.30
  L 333.75 530.03
  Q 333.75 529.32 333.03 529.32
  L 328.07 529.36
  Q 327.25 529.36 327.25 530.18
  L 327.25 559.50
  Q 327.25 560.00 327.75 560.00
  L 333.29 560.00
  Q 333.74 560.00 333.74 559.55
  Q 333.82 550.60 333.68 541.73
  C 333.61 537.36 335.99 534.28 340.71 535.07
  C 346.12 535.97 345.81 540.87 345.78 545.19
  Q 345.72 552.57 345.69 559.47
  Q 345.69 560.00 346.22 560.00
  L 351.76 559.99
  Q 352.30 559.99 352.31 559.45
  Q 352.37 548.73 352.20 540.54
  Q 352.00 531.37 344.63 529.37
  Q 338.48 527.70 334.21 532.48
  Q 333.75 533.00 333.75 532.30"
/>
<path stroke="#c1c9c0" vector-effect="non-scaling-stroke" d="
  M 381.25 539.23
  C 380.81 537.08 382.23 535.30 384.35 534.95
  C 388.68 534.24 392.02 535.41 395.64 537.45
  Q 395.89 537.59 396.08 537.37
  L 399.57 533.24
  Q 399.78 532.99 399.51 532.81
  Q 391.71 527.60 382.30 529.46
  C 379.18 530.07 376.13 532.11 375.38 535.36
  Q 373.27 544.46 380.66 546.48
  Q 381.78 546.79 385.84 547.06
  Q 388.26 547.22 391.05 547.84
  Q 393.97 548.48 393.52 551.50
  C 393.17 553.87 390.27 554.78 388.26 554.96
  Q 382.80 555.44 377.26 551.15
  Q 377.08 551.01 376.94 551.18
  L 373.30 555.53
  Q 373.11 555.76 373.34 555.94
  Q 379.95 561.42 389.39 560.53
  C 395.79 559.93 400.10 557.07 399.79 549.76
  C 399.56 544.38 395.96 542.31 391.01 541.85
  Q 386.87 541.46 383.17 541.00
  A 2.23 2.23 0.0 0 1 381.25 539.23"
/>
<path stroke="#c1c9c0" vector-effect="non-scaling-stroke" d="
  M 431.56 540.51
  A 11.49 11.49 0.0 0 0 420.07 529.02
  L 417.69 529.02
  A 11.49 11.49 0.0 0 0 406.20 540.51
  L 406.20 549.11
  A 11.49 11.49 0.0 0 0 417.69 560.60
  L 420.07 560.60
  A 11.49 11.49 0.0 0 0 431.56 549.11
  L 431.56 540.51"
/>
<path stroke="#c1c9c0" vector-effect="non-scaling-stroke" d="
  M 473.87 547.35
  L 491.79 547.35
  Q 492.45 547.35 492.48 546.69
  Q 492.79 540.09 490.48 535.30
  C 487.48 529.08 480.48 527.70 474.45 530.00
  C 466.21 533.16 466.96 542.51 467.28 549.48
  C 467.51 554.74 471.14 558.89 476.30 560.13
  Q 484.63 562.15 491.63 556.08
  Q 491.79 555.94 491.65 555.79
  Q 489.73 553.75 487.65 551.93
  A 0.28 0.27 -42.4 0 0 487.29 551.92
  C 482.26 555.91 473.84 555.86 473.33 547.93
  Q 473.29 547.35 473.87 547.35"
/>
<path stroke="#c1c9c0" vector-effect="non-scaling-stroke" d="
  M 542.18 532.23
  L 542.34 530.26
  Q 542.42 529.34 541.50 529.34
  L 536.55 529.36
  Q 535.73 529.37 535.73 530.20
  L 535.71 559.48
  Q 535.71 560.00 536.23 560.00
  L 541.97 559.99
  A 0.38 0.38 0.0 0 0 542.35 559.61
  Q 542.26 550.86 542.28 541.74
  Q 542.30 533.88 549.44 535.14
  Q 550.78 535.37 552.09 536.44
  Q 552.87 537.06 553.46 536.27
  L 556.53 532.15
  A 0.93 0.93 0.0 0 0 556.24 530.78
  Q 548.36 526.38 542.69 532.46
  Q 542.10 533.09 542.18 532.23"
/>
<path stroke="#c1c9c0" vector-effect="non-scaling-stroke" d="
  M 566.68 547.34
  L 584.71 547.35
  Q 585.22 547.35 585.26 546.84
  C 585.87 538.33 582.76 528.65 572.33 528.98
  C 566.45 529.17 561.62 532.49 560.45 538.30
  C 559.28 544.07 558.86 555.02 565.21 558.48
  Q 575.04 563.85 584.45 556.12
  Q 584.62 555.98 584.47 555.82
  Q 581.41 552.47 580.17 551.89
  Q 580.12 551.87 580.07 551.91
  C 575.12 556.06 566.95 555.84 566.14 547.94
  Q 566.08 547.34 566.68 547.34"
/>
<path stroke="#c1c9c0" vector-effect="non-scaling-stroke" d="
  M 599.40 532.26
  L 599.53 530.09
  Q 599.57 529.35 598.84 529.35
  L 593.48 529.36
  Q 592.83 529.36 592.83 530.02
  L 592.83 559.54
  Q 592.83 560.00 593.29 560.00
  L 599.01 560.00
  Q 599.49 560.00 599.50 559.51
  Q 599.53 550.75 599.47 540.76
  C 599.45 537.89 600.98 535.37 604.02 535.06
  Q 611.38 534.32 611.40 542.09
  Q 611.42 551.12 611.39 559.62
  Q 611.39 560.00 611.77 560.00
  L 617.46 560.00
  Q 617.86 560.00 617.86 559.60
  Q 617.70 551.48 617.86 542.29
  Q 617.95 536.96 616.52 534.28
  C 613.30 528.25 604.44 526.84 599.92 532.46
  Q 599.34 533.18 599.40 532.26"
/>
<path stroke="#c1c9c0" vector-effect="non-scaling-stroke" d="
  M 647.79 532.47
  L 647.80 530.06
  Q 647.80 529.32 647.06 529.33
  L 642.27 529.37
  Q 641.41 529.38 641.41 530.23
  L 641.40 559.65
  Q 641.40 560.00 641.74 560.00
  L 647.49 560.00
  A 0.36 0.36 0.0 0 0 647.85 559.63
  Q 647.62 546.63 647.93 540.44
  C 648.31 532.63 659.72 533.34 659.81 540.76
  Q 659.91 549.04 659.77 559.47
  Q 659.76 560.00 660.29 560.00
  L 665.99 560.00
  Q 666.51 560.00 666.51 559.47
  C 666.51 553.81 666.37 547.99 666.51 542.19
  C 666.64 536.36 664.58 530.43 658.28 529.21
  Q 652.19 528.03 648.25 532.64
  Q 647.79 533.17 647.79 532.47"
/>
<path stroke="#c1c9c0" vector-effect="non-scaling-stroke" d="
  M 367.31 529.78
  A 0.41 0.41 0.0 0 0 366.90 529.37
  L 361.12 529.37
  A 0.41 0.41 0.0 0 0 360.71 529.78
  L 360.71 559.58
  A 0.41 0.41 0.0 0 0 361.12 559.99
  L 366.90 559.99
  A 0.41 0.41 0.0 0 0 367.31 559.58
  L 367.31 529.78"
/>
<path stroke="#c1c9c0" vector-effect="non-scaling-stroke" d="
  M 448.97 549.92
  L 442.01 529.54
  Q 441.94 529.35 441.74 529.35
  L 435.32 529.38
  A 0.17 0.16 79.0 0 0 435.17 529.61
  L 446.42 559.54
  Q 446.59 560.00 447.07 560.00
  L 451.19 560.00
  Q 451.73 559.99 451.91 559.50
  L 463.13 529.60
  A 0.10 0.10 0.0 0 0 463.04 529.47
  Q 457.40 529.11 456.33 529.51
  Q 456.28 529.52 456.27 529.57
  L 449.37 549.92
  Q 449.17 550.49 448.97 549.92"
/>
<path stroke="#c1c9c0" vector-effect="non-scaling-stroke" d="
  M 632.81 529.69
  A 0.34 0.34 0.0 0 0 632.47 529.35
  L 626.75 529.35
  A 0.34 0.34 0.0 0 0 626.41 529.69
  L 626.41 559.65
  A 0.34 0.34 0.0 0 0 626.75 559.99
  L 632.47 559.99
  A 0.34 0.34 0.0 0 0 632.81 559.65
  L 632.81 529.69"
/>
<path stroke="#c1c9c0" vector-effect="non-scaling-stroke" d="
  M 716.82 549.70
  Q 716.55 550.52 716.27 549.71
  L 709.21 529.51
  Q 709.15 529.34 708.96 529.34
  L 702.61 529.38
  Q 702.41 529.38 702.48 529.57
  L 713.37 559.03
  Q 713.58 559.60 713.36 560.17
  C 711.90 563.95 711.99 567.11 706.72 567.03
  Q 706.49 567.03 706.49 567.26
  L 706.50 572.30
  Q 706.50 572.61 706.81 572.66
  Q 711.40 573.43 714.58 571.07
  Q 716.14 569.91 717.90 564.79
  Q 723.57 548.25 730.00 529.69
  Q 730.11 529.36 729.77 529.36
  L 723.67 529.36
  Q 723.40 529.36 723.32 529.62
  L 716.82 549.70"
/>
<path stroke="#c1c9c0" vector-effect="non-scaling-stroke" d="
  M 444.55 606.13
  A 14.15 14.15 0.0 0 0 430.40 591.98
  L 428.38 591.98
  A 14.15 14.15 0.0 0 0 414.23 606.13
  L 414.23 621.41
  A 14.15 14.15 0.0 0 0 428.38 635.56
  L 430.40 635.56
  A 14.15 14.15 0.0 0 0 444.55 621.41
  L 444.55 606.13"
/>
<path stroke="#c1c9c0" vector-effect="non-scaling-stroke" d="
  M 459.75 607.29
  L 459.75 605.04
  Q 459.74 604.34 459.04 604.34
  L 453.94 604.37
  Q 453.25 604.37 453.25 605.06
  L 453.25 647.30
  A 0.36 0.35 -0.0 0 0 453.61 647.65
  L 459.54 647.65
  Q 459.74 647.65 459.74 647.46
  L 459.75 632.54
  Q 459.75 631.94 460.13 632.41
  Q 463.10 636.04 467.84 635.61
  Q 476.72 634.80 477.59 626.21
  Q 478.00 622.19 477.82 615.09
  C 477.71 611.13 476.31 607.13 472.71 605.27
  Q 465.82 601.70 460.16 607.46
  Q 459.75 607.87 459.75 607.29"
/>
<path stroke="#c1c9c0" vector-effect="non-scaling-stroke" d="
  M 502.82 633.96
  Q 502.58 634.36 503.00 634.78
  A 0.83 0.82 66.7 0 0 503.57 635.01
  L 508.70 634.98
  A 0.61 0.61 0.0 0 0 509.31 634.34
  Q 509.02 626.14 509.25 618.39
  Q 509.43 612.23 507.88 609.39
  C 503.76 601.85 491.73 602.91 486.18 607.91
  Q 485.57 608.46 486.24 608.93
  L 489.73 611.36
  Q 490.33 611.77 490.95 611.39
  C 495.86 608.35 503.15 608.48 502.85 616.40
  Q 502.83 617.04 502.19 617.03
  Q 497.18 616.88 492.65 617.08
  Q 485.84 617.37 484.53 623.45
  C 483.49 628.23 484.94 633.16 490.03 634.77
  Q 497.30 637.07 502.51 633.66
  Q 503.28 633.16 502.82 633.96"
/>
<path stroke="#c1c9c0" vector-effect="non-scaling-stroke" d="
  M 563.81 634.02
  Q 563.69 634.22 563.79 634.45
  Q 564.02 635.00 564.62 635.00
  L 569.49 634.99
  Q 570.26 634.99 570.23 634.22
  Q 569.98 626.83 570.19 617.46
  Q 570.29 612.55 569.22 610.20
  Q 567.16 605.70 562.44 604.56
  Q 553.55 602.42 547.12 607.91
  Q 546.49 608.44 547.17 608.90
  L 550.74 611.36
  Q 551.33 611.76 551.94 611.39
  Q 555.11 609.45 558.82 609.65
  Q 562.26 609.84 563.42 613.08
  Q 563.67 613.77 563.87 614.53
  Q 564.62 617.29 561.76 617.10
  Q 557.43 616.81 553.34 617.09
  Q 546.86 617.53 545.54 623.37
  C 544.45 628.19 545.98 633.23 551.12 634.81
  Q 558.28 637.02 563.49 633.71
  Q 564.28 633.20 563.81 634.02"
/>
<path stroke="#c1c9c0" vector-effect="non-scaling-stroke" d="
  M 527.82 624.62
  A 0.33 0.33 0.0 0 1 527.20 624.62
  L 520.40 604.69
  A 0.33 0.33 0.0 0 0 520.08 604.46
  L 513.93 604.53
  A 0.33 0.33 0.0 0 0 513.63 604.97
  L 524.83 634.79
  A 0.33 0.33 0.0 0 0 525.14 635.00
  L 529.83 635.00
  A 0.33 0.33 0.0 0 0 530.14 634.79
  L 541.37 604.86
  A 0.33 0.33 0.0 0 0 541.07 604.41
  L 534.91 604.34
  A 0.33 0.33 0.0 0 0 534.59 604.57
  L 527.82 624.62"
/>
<path stroke="#c1c9c0" vector-effect="non-scaling-stroke" d="
  M 568.2432 161.4973
  A 166.14 128.75 -43.8 0 0 359.2166 183.5634
  A 166.14 128.75 -43.8 0 0 328.4168 391.4827
  A 166.14 128.75 -43.8 0 0 537.4434 369.4166
  A 166.14 128.75 -43.8 0 0 568.2432 161.4973"
/>
<path stroke="#c1c9c0" vector-effect="non-scaling-stroke" d="
  M 287.83 377.44
  C 281.21 409.41 270.39 441.84 250.00 466.88
  A 0.45 0.44 42.5 0 0 250.03 467.48
  L 257.26 474.69
  Q 257.57 474.99 257.91 474.72
  C 277.06 459.33 300.73 448.95 324.35 442.57
  Q 336.48 439.29 348.76 436.67
  Q 349.30 436.55 348.80 436.32
  Q 308.41 417.31 288.42 377.55
  Q 288.26 377.24 287.94 377.32
  A 0.16 0.14 -6.9 0 0 287.83 377.44"
/>
<path stroke="#c1c9c0" vector-effect="non-scaling-stroke" d="
  M 240.87 493.79
  L 231.02 483.94
  A 0.55 0.55 0.0 0 0 230.24 483.94
  L 133.16 581.01
  A 8.04 7.05 -45.0 0 0 132.46 591.68
  L 133.13 592.35
  A 8.04 7.05 -45.0 0 0 143.80 591.65
  L 240.87 494.57
  A 0.55 0.55 0.0 0 0 240.87 493.79"
/>
<path stroke="#c1c9c0" vector-effect="non-scaling-stroke" d="
  M 300.64 542.21
  L 312.88 542.23
  A 0.27 0.27 0.0 0 0 313.15 541.96
  L 313.15 541.78
  A 7.03 6.25 -89.9 0 0 306.92 534.74
  L 306.64 534.74
  A 7.03 6.25 -89.9 0 0 300.37 541.76
  L 300.37 541.94
  A 0.27 0.27 0.0 0 0 300.64 542.21"
/>
<path stroke="#c1c9c0" vector-effect="non-scaling-stroke" d="
  M 425.12 540.86
  A 5.85 5.85 0.0 0 0 419.27 535.01
  L 418.49 535.01
  A 5.85 5.85 0.0 0 0 412.64 540.86
  L 412.64 548.68
  A 5.85 5.85 0.0 0 0 418.49 554.53
  L 419.27 554.53
  A 5.85 5.85 0.0 0 0 425.12 548.68
  L 425.12 540.86"
/>
<path stroke="#c1c9c0" vector-effect="non-scaling-stroke" d="
  M 473.63 542.21
  L 485.87 542.21
  A 0.27 0.27 0.0 0 0 486.14 541.94
  L 486.14 541.75
  A 7.02 6.27 -90.0 0 0 479.87 534.73
  L 479.63 534.73
  A 7.02 6.27 90.0 0 0 473.36 541.75
  L 473.36 541.94
  A 0.27 0.27 0.0 0 0 473.63 542.21"
/>
<path stroke="#c1c9c0" vector-effect="non-scaling-stroke" d="
  M 566.63 542.23
  L 578.53 542.21
  A 0.41 0.41 0.0 0 0 578.94 541.80
  L 578.94 541.53
  A 6.80 6.33 89.9 0 0 572.59 534.74
  L 572.53 534.74
  A 6.80 6.33 89.9 0 0 566.22 541.55
  L 566.22 541.82
  A 0.41 0.41 0.0 0 0 566.63 542.23"
/>
<path stroke="#c1c9c0" vector-effect="non-scaling-stroke" d="
  M 437.8068 606.0752
  A 8.03 8.03 0.0 0 0 429.7628 598.0592
  L 428.8428 598.0608
  A 8.03 8.03 0.0 0 0 420.8268 606.1048
  L 420.8532 621.2448
  A 8.03 8.03 0.0 0 0 428.8972 629.2608
  L 429.8172 629.2592
  A 8.03 8.03 0.0 0 0 437.8332 621.2152
  L 437.8068 606.0752"
/>
<path stroke="#c1c9c0" vector-effect="non-scaling-stroke" d="
  M 471.3680 615.2501
  A 5.48 5.48 0.0 0 0 465.8976 609.7606
  L 465.2376 609.7594
  A 5.48 5.48 0.0 0 0 459.7481 615.2299
  L 459.7320 624.4499
  A 5.48 5.48 0.0 0 0 465.2024 629.9394
  L 465.8624 629.9406
  A 5.48 5.48 0.0 0 0 471.3519 624.4701
  L 471.3680 615.2501"
/>
<path stroke="#c1c9c0" vector-effect="non-scaling-stroke" d="
  M 500.99 629.87
  A 2.34 2.34 0.0 0 0 502.78 627.61
  L 502.82 622.58
  Q 502.83 621.96 502.21 621.96
  Q 498.51 621.98 494.61 621.96
  C 493.08 621.95 491.37 622.54 490.81 624.13
  C 488.31 631.23 497.20 630.77 500.99 629.87"
/>
<path stroke="#c1c9c0" vector-effect="non-scaling-stroke" d="
  M 562.36 629.72
  A 2.06 2.04 -8.9 0 0 563.78 627.79
  L 563.85 622.33
  A 0.35 0.34 0.8 0 0 563.50 621.98
  L 555.29 621.96
  Q 552.49 621.95 551.64 624.62
  Q 551.43 625.27 551.44 625.92
  Q 551.45 629.60 555.09 630.16
  Q 559.06 630.78 562.36 629.72"
/>
</g>
<path fill="#839380" d="
  M 769.10 414.29
  A 373.73 373.73 0.0 0 1 395.37 788.02
  A 373.73 373.73 0.0 0 1 21.64 414.29
  A 373.73 373.73 0.0 0 1 395.37 40.56
  A 373.73 373.73 0.0 0 1 769.10 414.29
  Z
  M 271.25 496.83
  A 2.29 2.24 -12.5 0 1 272.00 495.68
  Q 285.12 484.69 300.64 477.66
  Q 321.20 468.34 342.27 463.79
  C 349.67 462.20 357.13 460.39 364.52 459.18
  Q 387.81 455.34 411.38 452.37
  C 416.20 451.76 421.01 450.85 425.79 450.19
  C 428.12 449.86 429.77 448.32 432.17 448.05
  Q 454.16 445.58 474.59 438.01
  Q 523.09 420.05 559.47 382.98
  C 603.12 338.49 631.27 275.29 620.37 212.81
  C 614.45 178.83 596.54 148.51 568.50 128.70
  Q 548.87 114.83 526.63 108.94
  Q 491.47 99.64 454.41 106.35
  Q 439.66 109.01 428.26 112.83
  Q 383.38 127.85 347.90 159.74
  C 309.81 193.97 281.25 241.05 275.19 292.48
  Q 273.56 306.36 273.54 306.50
  C 269.21 337.88 265.47 369.46 256.24 400.05
  C 250.39 419.44 241.71 438.07 228.86 453.12
  A 1.54 1.53 -76.8 0 1 228.06 453.62
  Q 224.11 454.61 221.51 457.22
  Q 168.23 510.61 115.62 563.11
  C 110.43 568.29 106.71 574.97 105.85 582.24
  Q 103.84 599.39 115.77 610.48
  C 128.81 622.61 148.71 622.18 161.26 609.63
  Q 212.72 558.14 267.21 503.66
  Q 270.16 500.71 271.25 496.83
  Z
  M 476.39 520.48
  A 0.35 0.35 0.0 0 0 476.44 520.97
  L 480.00 523.83
  A 0.35 0.35 0.0 0 0 480.48 523.79
  L 489.36 514.13
  A 0.35 0.35 0.0 0 0 489.32 513.62
  L 485.08 510.24
  A 0.35 0.35 0.0 0 0 484.59 510.29
  L 476.39 520.48
  Z
  M 569.21 520.45
  A 0.39 0.39 0.0 0 0 569.27 521.00
  L 572.85 523.82
  A 0.39 0.39 0.0 0 0 573.38 523.77
  L 582.10 514.19
  A 0.39 0.39 0.0 0 0 582.06 513.63
  L 577.99 510.24
  A 0.39 0.39 0.0 0 0 577.44 510.30
  L 569.21 520.45
  Z
  M 275.90 523.00
  A 0.36 0.36 0.0 0 1 276.26 523.36
  L 276.25 559.64
  A 0.36 0.36 0.0 0 0 276.61 560.00
  L 282.39 560.00
  A 0.36 0.36 0.0 0 0 282.75 559.64
  L 282.75 523.36
  A 0.36 0.36 0.0 0 1 283.11 523.00
  L 294.38 522.99
  A 0.36 0.36 0.0 0 0 294.74 522.63
  L 294.75 517.56
  A 0.36 0.36 0.0 0 0 294.39 517.20
  L 264.62 517.21
  A 0.36 0.36 0.0 0 0 264.26 517.57
  L 264.25 522.64
  A 0.36 0.36 0.0 0 0 264.61 523.00
  L 275.90 523.00
  Z
  M 367.3352 517.6442
  A 0.44 0.44 0.0 0 0 366.8944 517.2050
  L 361.1144 517.2150
  A 0.44 0.44 0.0 0 0 360.6752 517.6558
  L 360.6848 523.1958
  A 0.44 0.44 0.0 0 0 361.1256 523.6350
  L 366.9056 523.6250
  A 0.44 0.44 0.0 0 0 367.3448 523.1842
  L 367.3352 517.6442
  Z
  M 632.8000 517.5688
  A 0.37 0.37 0.0 0 0 632.4287 517.2001
  L 626.7688 517.2199
  A 0.37 0.37 0.0 0 0 626.4001 517.5912
  L 626.4200 523.2912
  A 0.37 0.37 0.0 0 0 626.7913 523.6599
  L 632.4512 523.6401
  A 0.37 0.37 0.0 0 0 632.8199 523.2688
  L 632.8000 517.5688
  Z
  M 681.48 542.99
  L 681.51 517.48
  Q 681.51 517.20 681.23 517.20
  L 674.97 517.25
  Q 674.84 517.25 674.84 517.38
  L 674.83 559.29
  Q 674.83 560.00 675.54 560.00
  L 681.01 559.99
  Q 681.51 559.99 681.51 559.49
  L 681.50 551.53
  A 0.74 0.71 66.1 0 1 681.67 551.06
  L 686.00 546.23
  A 0.54 0.53 -39.4 0 1 686.86 546.31
  L 694.98 559.79
  Q 695.11 560.02 695.38 560.01
  L 702.19 559.92
  Q 702.29 559.92 702.24 559.83
  Q 696.35 550.50 690.82 541.49
  Q 690.56 541.05 690.90 540.67
  L 700.44 529.99
  A 0.39 0.39 0.0 0 0 700.14 529.34
  L 693.83 529.37
  Q 693.28 529.37 692.92 529.80
  L 681.84 543.12
  Q 681.48 543.56 681.48 542.99
  Z
  M 523.86 529.04
  L 523.59 521.25
  Q 523.57 520.51 522.83 520.53
  L 518.30 520.61
  A 0.75 0.74 6.6 0 0 517.59 521.17
  Q 516.76 524.43 516.78 527.84
  Q 516.79 528.55 516.39 529.14
  Q 516.12 529.54 515.65 529.65
  Q 514.79 529.85 514.73 530.73
  L 514.53 533.78
  Q 514.48 534.45 515.13 534.64
  L 516.35 534.99
  Q 516.88 535.14 516.90 535.69
  Q 517.24 543.32 517.16 552.81
  C 517.09 559.63 521.72 560.70 527.49 560.29
  Q 528.22 560.24 528.22 559.50
  L 528.19 555.08
  Q 528.19 554.23 527.33 554.23
  L 524.83 554.22
  A 1.13 1.13 0.0 0 1 523.70 553.08
  L 523.76 535.65
  Q 523.77 535.08 524.34 535.05
  L 527.48 534.92
  A 0.73 0.72 -6.6 0 0 528.16 534.07
  L 527.49 530.20
  Q 527.38 529.52 526.68 529.51
  L 524.30 529.47
  Q 523.88 529.47 523.86 529.04
  Z
  M 302.02 547.34
  L 318.94 547.34
  Q 319.47 547.34 319.50 546.82
  Q 319.74 541.59 318.29 537.24
  C 315.72 529.54 308.31 527.26 301.24 530.10
  C 296.48 532.00 294.15 536.93 294.18 541.85
  C 294.20 544.51 294.08 547.20 294.34 549.81
  Q 295.00 556.35 300.32 558.96
  Q 309.57 563.50 318.61 556.14
  Q 318.81 555.98 318.64 555.79
  Q 316.74 553.75 314.66 551.93
  A 0.31 0.31 0.0 0 0 314.26 551.93
  Q 310.20 555.31 305.43 554.35
  Q 302.55 553.77 301.25 551.13
  Q 300.98 550.59 300.55 549.71
  Q 299.38 547.34 302.02 547.34
  Z
  M 333.75 532.30
  L 333.75 530.03
  Q 333.75 529.32 333.03 529.32
  L 328.07 529.36
  Q 327.25 529.36 327.25 530.18
  L 327.25 559.50
  Q 327.25 560.00 327.75 560.00
  L 333.29 560.00
  Q 333.74 560.00 333.74 559.55
  Q 333.82 550.60 333.68 541.73
  C 333.61 537.36 335.99 534.28 340.71 535.07
  C 346.12 535.97 345.81 540.87 345.78 545.19
  Q 345.72 552.57 345.69 559.47
  Q 345.69 560.00 346.22 560.00
  L 351.76 559.99
  Q 352.30 559.99 352.31 559.45
  Q 352.37 548.73 352.20 540.54
  Q 352.00 531.37 344.63 529.37
  Q 338.48 527.70 334.21 532.48
  Q 333.75 533.00 333.75 532.30
  Z
  M 381.25 539.23
  C 380.81 537.08 382.23 535.30 384.35 534.95
  C 388.68 534.24 392.02 535.41 395.64 537.45
  Q 395.89 537.59 396.08 537.37
  L 399.57 533.24
  Q 399.78 532.99 399.51 532.81
  Q 391.71 527.60 382.30 529.46
  C 379.18 530.07 376.13 532.11 375.38 535.36
  Q 373.27 544.46 380.66 546.48
  Q 381.78 546.79 385.84 547.06
  Q 388.26 547.22 391.05 547.84
  Q 393.97 548.48 393.52 551.50
  C 393.17 553.87 390.27 554.78 388.26 554.96
  Q 382.80 555.44 377.26 551.15
  Q 377.08 551.01 376.94 551.18
  L 373.30 555.53
  Q 373.11 555.76 373.34 555.94
  Q 379.95 561.42 389.39 560.53
  C 395.79 559.93 400.10 557.07 399.79 549.76
  C 399.56 544.38 395.96 542.31 391.01 541.85
  Q 386.87 541.46 383.17 541.00
  A 2.23 2.23 0.0 0 1 381.25 539.23
  Z
  M 431.56 540.51
  A 11.49 11.49 0.0 0 0 420.07 529.02
  L 417.69 529.02
  A 11.49 11.49 0.0 0 0 406.20 540.51
  L 406.20 549.11
  A 11.49 11.49 0.0 0 0 417.69 560.60
  L 420.07 560.60
  A 11.49 11.49 0.0 0 0 431.56 549.11
  L 431.56 540.51
  Z
  M 473.87 547.35
  L 491.79 547.35
  Q 492.45 547.35 492.48 546.69
  Q 492.79 540.09 490.48 535.30
  C 487.48 529.08 480.48 527.70 474.45 530.00
  C 466.21 533.16 466.96 542.51 467.28 549.48
  C 467.51 554.74 471.14 558.89 476.30 560.13
  Q 484.63 562.15 491.63 556.08
  Q 491.79 555.94 491.65 555.79
  Q 489.73 553.75 487.65 551.93
  A 0.28 0.27 -42.4 0 0 487.29 551.92
  C 482.26 555.91 473.84 555.86 473.33 547.93
  Q 473.29 547.35 473.87 547.35
  Z
  M 542.18 532.23
  L 542.34 530.26
  Q 542.42 529.34 541.50 529.34
  L 536.55 529.36
  Q 535.73 529.37 535.73 530.20
  L 535.71 559.48
  Q 535.71 560.00 536.23 560.00
  L 541.97 559.99
  A 0.38 0.38 0.0 0 0 542.35 559.61
  Q 542.26 550.86 542.28 541.74
  Q 542.30 533.88 549.44 535.14
  Q 550.78 535.37 552.09 536.44
  Q 552.87 537.06 553.46 536.27
  L 556.53 532.15
  A 0.93 0.93 0.0 0 0 556.24 530.78
  Q 548.36 526.38 542.69 532.46
  Q 542.10 533.09 542.18 532.23
  Z
  M 566.68 547.34
  L 584.71 547.35
  Q 585.22 547.35 585.26 546.84
  C 585.87 538.33 582.76 528.65 572.33 528.98
  C 566.45 529.17 561.62 532.49 560.45 538.30
  C 559.28 544.07 558.86 555.02 565.21 558.48
  Q 575.04 563.85 584.45 556.12
  Q 584.62 555.98 584.47 555.82
  Q 581.41 552.47 580.17 551.89
  Q 580.12 551.87 580.07 551.91
  C 575.12 556.06 566.95 555.84 566.14 547.94
  Q 566.08 547.34 566.68 547.34
  Z
  M 599.40 532.26
  L 599.53 530.09
  Q 599.57 529.35 598.84 529.35
  L 593.48 529.36
  Q 592.83 529.36 592.83 530.02
  L 592.83 559.54
  Q 592.83 560.00 593.29 560.00
  L 599.01 560.00
  Q 599.49 560.00 599.50 559.51
  Q 599.53 550.75 599.47 540.76
  C 599.45 537.89 600.98 535.37 604.02 535.06
  Q 611.38 534.32 611.40 542.09
  Q 611.42 551.12 611.39 559.62
  Q 611.39 560.00 611.77 560.00
  L 617.46 560.00
  Q 617.86 560.00 617.86 559.60
  Q 617.70 551.48 617.86 542.29
  Q 617.95 536.96 616.52 534.28
  C 613.30 528.25 604.44 526.84 599.92 532.46
  Q 599.34 533.18 599.40 532.26
  Z
  M 647.79 532.47
  L 647.80 530.06
  Q 647.80 529.32 647.06 529.33
  L 642.27 529.37
  Q 641.41 529.38 641.41 530.23
  L 641.40 559.65
  Q 641.40 560.00 641.74 560.00
  L 647.49 560.00
  A 0.36 0.36 0.0 0 0 647.85 559.63
  Q 647.62 546.63 647.93 540.44
  C 648.31 532.63 659.72 533.34 659.81 540.76
  Q 659.91 549.04 659.77 559.47
  Q 659.76 560.00 660.29 560.00
  L 665.99 560.00
  Q 666.51 560.00 666.51 559.47
  C 666.51 553.81 666.37 547.99 666.51 542.19
  C 666.64 536.36 664.58 530.43 658.28 529.21
  Q 652.19 528.03 648.25 532.64
  Q 647.79 533.17 647.79 532.47
  Z
  M 367.31 529.78
  A 0.41 0.41 0.0 0 0 366.90 529.37
  L 361.12 529.37
  A 0.41 0.41 0.0 0 0 360.71 529.78
  L 360.71 559.58
  A 0.41 0.41 0.0 0 0 361.12 559.99
  L 366.90 559.99
  A 0.41 0.41 0.0 0 0 367.31 559.58
  L 367.31 529.78
  Z
  M 448.97 549.92
  L 442.01 529.54
  Q 441.94 529.35 441.74 529.35
  L 435.32 529.38
  A 0.17 0.16 79.0 0 0 435.17 529.61
  L 446.42 559.54
  Q 446.59 560.00 447.07 560.00
  L 451.19 560.00
  Q 451.73 559.99 451.91 559.50
  L 463.13 529.60
  A 0.10 0.10 0.0 0 0 463.04 529.47
  Q 457.40 529.11 456.33 529.51
  Q 456.28 529.52 456.27 529.57
  L 449.37 549.92
  Q 449.17 550.49 448.97 549.92
  Z
  M 632.81 529.69
  A 0.34 0.34 0.0 0 0 632.47 529.35
  L 626.75 529.35
  A 0.34 0.34 0.0 0 0 626.41 529.69
  L 626.41 559.65
  A 0.34 0.34 0.0 0 0 626.75 559.99
  L 632.47 559.99
  A 0.34 0.34 0.0 0 0 632.81 559.65
  L 632.81 529.69
  Z
  M 716.82 549.70
  Q 716.55 550.52 716.27 549.71
  L 709.21 529.51
  Q 709.15 529.34 708.96 529.34
  L 702.61 529.38
  Q 702.41 529.38 702.48 529.57
  L 713.37 559.03
  Q 713.58 559.60 713.36 560.17
  C 711.90 563.95 711.99 567.11 706.72 567.03
  Q 706.49 567.03 706.49 567.26
  L 706.50 572.30
  Q 706.50 572.61 706.81 572.66
  Q 711.40 573.43 714.58 571.07
  Q 716.14 569.91 717.90 564.79
  Q 723.57 548.25 730.00 529.69
  Q 730.11 529.36 729.77 529.36
  L 723.67 529.36
  Q 723.40 529.36 723.32 529.62
  L 716.82 549.70
  Z
  M 444.55 606.13
  A 14.15 14.15 0.0 0 0 430.40 591.98
  L 428.38 591.98
  A 14.15 14.15 0.0 0 0 414.23 606.13
  L 414.23 621.41
  A 14.15 14.15 0.0 0 0 428.38 635.56
  L 430.40 635.56
  A 14.15 14.15 0.0 0 0 444.55 621.41
  L 444.55 606.13
  Z
  M 459.75 607.29
  L 459.75 605.04
  Q 459.74 604.34 459.04 604.34
  L 453.94 604.37
  Q 453.25 604.37 453.25 605.06
  L 453.25 647.30
  A 0.36 0.35 -0.0 0 0 453.61 647.65
  L 459.54 647.65
  Q 459.74 647.65 459.74 647.46
  L 459.75 632.54
  Q 459.75 631.94 460.13 632.41
  Q 463.10 636.04 467.84 635.61
  Q 476.72 634.80 477.59 626.21
  Q 478.00 622.19 477.82 615.09
  C 477.71 611.13 476.31 607.13 472.71 605.27
  Q 465.82 601.70 460.16 607.46
  Q 459.75 607.87 459.75 607.29
  Z
  M 502.82 633.96
  Q 502.58 634.36 503.00 634.78
  A 0.83 0.82 66.7 0 0 503.57 635.01
  L 508.70 634.98
  A 0.61 0.61 0.0 0 0 509.31 634.34
  Q 509.02 626.14 509.25 618.39
  Q 509.43 612.23 507.88 609.39
  C 503.76 601.85 491.73 602.91 486.18 607.91
  Q 485.57 608.46 486.24 608.93
  L 489.73 611.36
  Q 490.33 611.77 490.95 611.39
  C 495.86 608.35 503.15 608.48 502.85 616.40
  Q 502.83 617.04 502.19 617.03
  Q 497.18 616.88 492.65 617.08
  Q 485.84 617.37 484.53 623.45
  C 483.49 628.23 484.94 633.16 490.03 634.77
  Q 497.30 637.07 502.51 633.66
  Q 503.28 633.16 502.82 633.96
  Z
  M 563.81 634.02
  Q 563.69 634.22 563.79 634.45
  Q 564.02 635.00 564.62 635.00
  L 569.49 634.99
  Q 570.26 634.99 570.23 634.22
  Q 569.98 626.83 570.19 617.46
  Q 570.29 612.55 569.22 610.20
  Q 567.16 605.70 562.44 604.56
  Q 553.55 602.42 547.12 607.91
  Q 546.49 608.44 547.17 608.90
  L 550.74 611.36
  Q 551.33 611.76 551.94 611.39
  Q 555.11 609.45 558.82 609.65
  Q 562.26 609.84 563.42 613.08
  Q 563.67 613.77 563.87 614.53
  Q 564.62 617.29 561.76 617.10
  Q 557.43 616.81 553.34 617.09
  Q 546.86 617.53 545.54 623.37
  C 544.45 628.19 545.98 633.23 551.12 634.81
  Q 558.28 637.02 563.49 633.71
  Q 564.28 633.20 563.81 634.02
  Z
  M 527.82 624.62
  A 0.33 0.33 0.0 0 1 527.20 624.62
  L 520.40 604.69
  A 0.33 0.33 0.0 0 0 520.08 604.46
  L 513.93 604.53
  A 0.33 0.33 0.0 0 0 513.63 604.97
  L 524.83 634.79
  A 0.33 0.33 0.0 0 0 525.14 635.00
  L 529.83 635.00
  A 0.33 0.33 0.0 0 0 530.14 634.79
  L 541.37 604.86
  A 0.33 0.33 0.0 0 0 541.07 604.41
  L 534.91 604.34
  A 0.33 0.33 0.0 0 0 534.59 604.57
  L 527.82 624.62
  Z"
/>
<g>
<path fill="#ffffff" d="
  M 271.25 496.83
  Q 270.16 500.71 267.21 503.66
  Q 212.72 558.14 161.26 609.63
  C 148.71 622.18 128.81 622.61 115.77 610.48
  Q 103.84 599.39 105.85 582.24
  C 106.71 574.97 110.43 568.29 115.62 563.11
  Q 168.23 510.61 221.51 457.22
  Q 224.11 454.61 228.06 453.62
  A 1.54 1.53 -76.8 0 0 228.86 453.12
  C 241.71 438.07 250.39 419.44 256.24 400.05
  C 265.47 369.46 269.21 337.88 273.54 306.50
  Q 273.56 306.36 275.19 292.48
  C 281.25 241.05 309.81 193.97 347.90 159.74
  Q 383.38 127.85 428.26 112.83
  Q 439.66 109.01 454.41 106.35
  Q 491.47 99.64 526.63 108.94
  Q 548.87 114.83 568.50 128.70
  C 596.54 148.51 614.45 178.83 620.37 212.81
  C 631.27 275.29 603.12 338.49 559.47 382.98
  Q 523.09 420.05 474.59 438.01
  Q 454.16 445.58 432.17 448.05
  C 429.77 448.32 428.12 449.86 425.79 450.19
  C 421.01 450.85 416.20 451.76 411.38 452.37
  Q 387.81 455.34 364.52 459.18
  C 357.13 460.39 349.67 462.20 342.27 463.79
  Q 321.20 468.34 300.64 477.66
  Q 285.12 484.69 272.00 495.68
  A 2.29 2.24 -12.5 0 0 271.25 496.83
  Z
  M 568.2432 161.4973
  A 166.14 128.75 -43.8 0 0 359.2166 183.5634
  A 166.14 128.75 -43.8 0 0 328.4168 391.4827
  A 166.14 128.75 -43.8 0 0 537.4434 369.4166
  A 166.14 128.75 -43.8 0 0 568.2432 161.4973
  Z
  M 287.83 377.44
  C 281.21 409.41 270.39 441.84 250.00 466.88
  A 0.45 0.44 42.5 0 0 250.03 467.48
  L 257.26 474.69
  Q 257.57 474.99 257.91 474.72
  C 277.06 459.33 300.73 448.95 324.35 442.57
  Q 336.48 439.29 348.76 436.67
  Q 349.30 436.55 348.80 436.32
  Q 308.41 417.31 288.42 377.55
  Q 288.26 377.24 287.94 377.32
  A 0.16 0.14 -6.9 0 0 287.83 377.44
  Z
  M 240.87 493.79
  L 231.02 483.94
  A 0.55 0.55 0.0 0 0 230.24 483.94
  L 133.16 581.01
  A 8.04 7.05 -45.0 0 0 132.46 591.68
  L 133.13 592.35
  A 8.04 7.05 -45.0 0 0 143.80 591.65
  L 240.87 494.57
  A 0.55 0.55 0.0 0 0 240.87 493.79
  Z"
/>
<path fill="#ffffff" d="
  M 476.39 520.48
  L 484.59 510.29
  A 0.35 0.35 0.0 0 1 485.08 510.24
  L 489.32 513.62
  A 0.35 0.35 0.0 0 1 489.36 514.13
  L 480.48 523.79
  A 0.35 0.35 0.0 0 1 480.00 523.83
  L 476.44 520.97
  A 0.35 0.35 0.0 0 1 476.39 520.48
  Z"
/>
<path fill="#ffffff" d="
  M 569.21 520.45
  L 577.44 510.30
  A 0.39 0.39 0.0 0 1 577.99 510.24
  L 582.06 513.63
  A 0.39 0.39 0.0 0 1 582.10 514.19
  L 573.38 523.77
  A 0.39 0.39 0.0 0 1 572.85 523.82
  L 569.27 521.00
  A 0.39 0.39 0.0 0 1 569.21 520.45
  Z"
/>
<path fill="#ffffff" d="
  M 275.90 523.00
  L 264.61 523.00
  A 0.36 0.36 0.0 0 1 264.25 522.64
  L 264.26 517.57
  A 0.36 0.36 0.0 0 1 264.62 517.21
  L 294.39 517.20
  A 0.36 0.36 0.0 0 1 294.75 517.56
  L 294.74 522.63
  A 0.36 0.36 0.0 0 1 294.38 522.99
  L 283.11 523.00
  A 0.36 0.36 0.0 0 0 282.75 523.36
  L 282.75 559.64
  A 0.36 0.36 0.0 0 1 282.39 560.00
  L 276.61 560.00
  A 0.36 0.36 0.0 0 1 276.25 559.64
  L 276.26 523.36
  A 0.36 0.36 0.0 0 0 275.90 523.00
  Z"
/>
<rect fill="#ffffff" x="-3.33" y="-3.21" transform="translate(364.01,520.42) rotate(-0.1)" width="6.66" height="6.42" rx="0.44"/>
<rect fill="#ffffff" x="-3.20" y="-3.22" transform="translate(629.61,520.43) rotate(-0.2)" width="6.40" height="6.44" rx="0.37"/>
<path fill="#ffffff" d="
  M 681.48 542.99
  Q 681.48 543.56 681.84 543.12
  L 692.92 529.80
  Q 693.28 529.37 693.83 529.37
  L 700.14 529.34
  A 0.39 0.39 0.0 0 1 700.44 529.99
  L 690.90 540.67
  Q 690.56 541.05 690.82 541.49
  Q 696.35 550.50 702.24 559.83
  Q 702.29 559.92 702.19 559.92
  L 695.38 560.01
  Q 695.11 560.02 694.98 559.79
  L 686.86 546.31
  A 0.54 0.53 -39.4 0 0 686.00 546.23
  L 681.67 551.06
  A 0.74 0.71 66.1 0 0 681.50 551.53
  L 681.51 559.49
  Q 681.51 559.99 681.01 559.99
  L 675.54 560.00
  Q 674.83 560.00 674.83 559.29
  L 674.84 517.38
  Q 674.84 517.25 674.97 517.25
  L 681.23 517.20
  Q 681.51 517.20 681.51 517.48
  L 681.48 542.99
  Z"
/>
<path fill="#ffffff" d="
  M 524.30 529.47
  L 526.68 529.51
  Q 527.38 529.52 527.49 530.20
  L 528.16 534.07
  A 0.73 0.72 -6.6 0 1 527.48 534.92
  L 524.34 535.05
  Q 523.77 535.08 523.76 535.65
  L 523.70 553.08
  A 1.13 1.13 0.0 0 0 524.83 554.22
  L 527.33 554.23
  Q 528.19 554.23 528.19 555.08
  L 528.22 559.50
  Q 528.22 560.24 527.49 560.29
  C 521.72 560.70 517.09 559.63 517.16 552.81
  Q 517.24 543.32 516.90 535.69
  Q 516.88 535.14 516.35 534.99
  L 515.13 534.64
  Q 514.48 534.45 514.53 533.78
  L 514.73 530.73
  Q 514.79 529.85 515.65 529.65
  Q 516.12 529.54 516.39 529.14
  Q 516.79 528.55 516.78 527.84
  Q 516.76 524.43 517.59 521.17
  A 0.75 0.74 6.6 0 1 518.30 520.61
  L 522.83 520.53
  Q 523.57 520.51 523.59 521.25
  L 523.86 529.04
  Q 523.88 529.47 524.30 529.47
  Z"
/>
<path fill="#ffffff" d="
  M 302.02 547.34
  Q 299.38 547.34 300.55 549.71
  Q 300.98 550.59 301.25 551.13
  Q 302.55 553.77 305.43 554.35
  Q 310.20 555.31 314.26 551.93
  A 0.31 0.31 0.0 0 1 314.66 551.93
  Q 316.74 553.75 318.64 555.79
  Q 318.81 555.98 318.61 556.14
  Q 309.57 563.50 300.32 558.96
  Q 295.00 556.35 294.34 549.81
  C 294.08 547.20 294.20 544.51 294.18 541.85
  C 294.15 536.93 296.48 532.00 301.24 530.10
  C 308.31 527.26 315.72 529.54 318.29 537.24
  Q 319.74 541.59 319.50 546.82
  Q 319.47 547.34 318.94 547.34
  L 302.02 547.34
  Z
  M 300.64 542.21
  L 312.88 542.23
  A 0.27 0.27 0.0 0 0 313.15 541.96
  L 313.15 541.78
  A 7.03 6.25 -89.9 0 0 306.92 534.74
  L 306.64 534.74
  A 7.03 6.25 -89.9 0 0 300.37 541.76
  L 300.37 541.94
  A 0.27 0.27 0.0 0 0 300.64 542.21
  Z"
/>
<path fill="#ffffff" d="
  M 334.21 532.48
  Q 338.48 527.70 344.63 529.37
  Q 352.00 531.37 352.20 540.54
  Q 352.37 548.73 352.31 559.45
  Q 352.30 559.99 351.76 559.99
  L 346.22 560.00
  Q 345.69 560.00 345.69 559.47
  Q 345.72 552.57 345.78 545.19
  C 345.81 540.87 346.12 535.97 340.71 535.07
  C 335.99 534.28 333.61 537.36 333.68 541.73
  Q 333.82 550.60 333.74 559.55
  Q 333.74 560.00 333.29 560.00
  L 327.75 560.00
  Q 327.25 560.00 327.25 559.50
  L 327.25 530.18
  Q 327.25 529.36 328.07 529.36
  L 333.03 529.32
  Q 333.75 529.32 333.75 530.03
  L 333.75 532.30
  Q 333.75 533.00 334.21 532.48
  Z"
/>
<path fill="#ffffff" d="
  M 381.25 539.23
  A 2.23 2.23 0.0 0 0 383.17 541.00
  Q 386.87 541.46 391.01 541.85
  C 395.96 542.31 399.56 544.38 399.79 549.76
  C 400.10 557.07 395.79 559.93 389.39 560.53
  Q 379.95 561.42 373.34 555.94
  Q 373.11 555.76 373.30 555.53
  L 376.94 551.18
  Q 377.08 551.01 377.26 551.15
  Q 382.80 555.44 388.26 554.96
  C 390.27 554.78 393.17 553.87 393.52 551.50
  Q 393.97 548.48 391.05 547.84
  Q 388.26 547.22 385.84 547.06
  Q 381.78 546.79 380.66 546.48
  Q 373.27 544.46 375.38 535.36
  C 376.13 532.11 379.18 530.07 382.30 529.46
  Q 391.71 527.60 399.51 532.81
  Q 399.78 532.99 399.57 533.24
  L 396.08 537.37
  Q 395.89 537.59 395.64 537.45
  C 392.02 535.41 388.68 534.24 384.35 534.95
  C 382.23 535.30 380.81 537.08 381.25 539.23
  Z"
/>
<path fill="#ffffff" d="
  M 431.56 549.11
  A 11.49 11.49 0.0 0 1 420.07 560.60
  L 417.69 560.60
  A 11.49 11.49 0.0 0 1 406.20 549.11
  L 406.20 540.51
  A 11.49 11.49 0.0 0 1 417.69 529.02
  L 420.07 529.02
  A 11.49 11.49 0.0 0 1 431.56 540.51
  L 431.56 549.11
  Z
  M 425.12 540.86
  A 5.85 5.85 0.0 0 0 419.27 535.01
  L 418.49 535.01
  A 5.85 5.85 0.0 0 0 412.64 540.86
  L 412.64 548.68
  A 5.85 5.85 0.0 0 0 418.49 554.53
  L 419.27 554.53
  A 5.85 5.85 0.0 0 0 425.12 548.68
  L 425.12 540.86
  Z"
/>
<path fill="#ffffff" d="
  M 473.33 547.93
  C 473.84 555.86 482.26 555.91 487.29 551.92
  A 0.28 0.27 -42.4 0 1 487.65 551.93
  Q 489.73 553.75 491.65 555.79
  Q 491.79 555.94 491.63 556.08
  Q 484.63 562.15 476.30 560.13
  C 471.14 558.89 467.51 554.74 467.28 549.48
  C 466.96 542.51 466.21 533.16 474.45 530.00
  C 480.48 527.70 487.48 529.08 490.48 535.30
  Q 492.79 540.09 492.48 546.69
  Q 492.45 547.35 491.79 547.35
  L 473.87 547.35
  Q 473.29 547.35 473.33 547.93
  Z
  M 473.63 542.21
  L 485.87 542.21
  A 0.27 0.27 0.0 0 0 486.14 541.94
  L 486.14 541.75
  A 7.02 6.27 -90.0 0 0 479.87 534.73
  L 479.63 534.73
  A 7.02 6.27 90.0 0 0 473.36 541.75
  L 473.36 541.94
  A 0.27 0.27 0.0 0 0 473.63 542.21
  Z"
/>
<path fill="#ffffff" d="
  M 542.69 532.46
  Q 548.36 526.38 556.24 530.78
  A 0.93 0.93 0.0 0 1 556.53 532.15
  L 553.46 536.27
  Q 552.87 537.06 552.09 536.44
  Q 550.78 535.37 549.44 535.14
  Q 542.30 533.88 542.28 541.74
  Q 542.26 550.86 542.35 559.61
  A 0.38 0.38 0.0 0 1 541.97 559.99
  L 536.23 560.00
  Q 535.71 560.00 535.71 559.48
  L 535.73 530.20
  Q 535.73 529.37 536.55 529.36
  L 541.50 529.34
  Q 542.42 529.34 542.34 530.26
  L 542.18 532.23
  Q 542.10 533.09 542.69 532.46
  Z"
/>
<path fill="#ffffff" d="
  M 566.14 547.94
  C 566.95 555.84 575.12 556.06 580.07 551.91
  Q 580.12 551.87 580.17 551.89
  Q 581.41 552.47 584.47 555.82
  Q 584.62 555.98 584.45 556.12
  Q 575.04 563.85 565.21 558.48
  C 558.86 555.02 559.28 544.07 560.45 538.30
  C 561.62 532.49 566.45 529.17 572.33 528.98
  C 582.76 528.65 585.87 538.33 585.26 546.84
  Q 585.22 547.35 584.71 547.35
  L 566.68 547.34
  Q 566.08 547.34 566.14 547.94
  Z
  M 566.63 542.23
  L 578.53 542.21
  A 0.41 0.41 0.0 0 0 578.94 541.80
  L 578.94 541.53
  A 6.80 6.33 89.9 0 0 572.59 534.74
  L 572.53 534.74
  A 6.80 6.33 89.9 0 0 566.22 541.55
  L 566.22 541.82
  A 0.41 0.41 0.0 0 0 566.63 542.23
  Z"
/>
<path fill="#ffffff" d="
  M 599.40 532.26
  Q 599.34 533.18 599.92 532.46
  C 604.44 526.84 613.30 528.25 616.52 534.28
  Q 617.95 536.96 617.86 542.29
  Q 617.70 551.48 617.86 559.60
  Q 617.86 560.00 617.46 560.00
  L 611.77 560.00
  Q 611.39 560.00 611.39 559.62
  Q 611.42 551.12 611.40 542.09
  Q 611.38 534.32 604.02 535.06
  C 600.98 535.37 599.45 537.89 599.47 540.76
  Q 599.53 550.75 599.50 559.51
  Q 599.49 560.00 599.01 560.00
  L 593.29 560.00
  Q 592.83 560.00 592.83 559.54
  L 592.83 530.02
  Q 592.83 529.36 593.48 529.36
  L 598.84 529.35
  Q 599.57 529.35 599.53 530.09
  L 599.40 532.26
  Z"
/>
<path fill="#ffffff" d="
  M 648.25 532.64
  Q 652.19 528.03 658.28 529.21
  C 664.58 530.43 666.64 536.36 666.51 542.19
  C 666.37 547.99 666.51 553.81 666.51 559.47
  Q 666.51 560.00 665.99 560.00
  L 660.29 560.00
  Q 659.76 560.00 659.77 559.47
  Q 659.91 549.04 659.81 540.76
  C 659.72 533.34 648.31 532.63 647.93 540.44
  Q 647.62 546.63 647.85 559.63
  A 0.36 0.36 0.0 0 1 647.49 560.00
  L 641.74 560.00
  Q 641.40 560.00 641.40 559.65
  L 641.41 530.23
  Q 641.41 529.38 642.27 529.37
  L 647.06 529.33
  Q 647.80 529.32 647.80 530.06
  L 647.79 532.47
  Q 647.79 533.17 648.25 532.64
  Z"
/>
<rect fill="#ffffff" x="360.71" y="529.37" width="6.60" height="30.62" rx="0.41"/>
<path fill="#ffffff" d="
  M 449.37 549.92
  L 456.27 529.57
  Q 456.28 529.52 456.33 529.51
  Q 457.40 529.11 463.04 529.47
  A 0.10 0.10 0.0 0 1 463.13 529.60
  L 451.91 559.50
  Q 451.73 559.99 451.19 560.00
  L 447.07 560.00
  Q 446.59 560.00 446.42 559.54
  L 435.17 529.61
  A 0.17 0.16 79.0 0 1 435.32 529.38
  L 441.74 529.35
  Q 441.94 529.35 442.01 529.54
  L 448.97 549.92
  Q 449.17 550.49 449.37 549.92
  Z"
/>
<rect fill="#ffffff" x="626.41" y="529.35" width="6.40" height="30.64" rx="0.34"/>
<path fill="#ffffff" d="
  M 716.82 549.70
  L 723.32 529.62
  Q 723.40 529.36 723.67 529.36
  L 729.77 529.36
  Q 730.11 529.36 730.00 529.69
  Q 723.57 548.25 717.90 564.79
  Q 716.14 569.91 714.58 571.07
  Q 711.40 573.43 706.81 572.66
  Q 706.50 572.61 706.50 572.30
  L 706.49 567.26
  Q 706.49 567.03 706.72 567.03
  C 711.99 567.11 711.90 563.95 713.36 560.17
  Q 713.58 559.60 713.37 559.03
  L 702.48 529.57
  Q 702.41 529.38 702.61 529.38
  L 708.96 529.34
  Q 709.15 529.34 709.21 529.51
  L 716.27 549.71
  Q 716.55 550.52 716.82 549.70
  Z"
/>
<path fill="#ffffff" d="
  M 444.55 621.41
  A 14.15 14.15 0.0 0 1 430.40 635.56
  L 428.38 635.56
  A 14.15 14.15 0.0 0 1 414.23 621.41
  L 414.23 606.13
  A 14.15 14.15 0.0 0 1 428.38 591.98
  L 430.40 591.98
  A 14.15 14.15 0.0 0 1 444.55 606.13
  L 444.55 621.41
  Z
  M 437.8068 606.0752
  A 8.03 8.03 0.0 0 0 429.7628 598.0592
  L 428.8428 598.0608
  A 8.03 8.03 0.0 0 0 420.8268 606.1048
  L 420.8532 621.2448
  A 8.03 8.03 0.0 0 0 428.8972 629.2608
  L 429.8172 629.2592
  A 8.03 8.03 0.0 0 0 437.8332 621.2152
  L 437.8068 606.0752
  Z"
/>
<path fill="#ffffff" d="
  M 460.16 607.46
  Q 465.82 601.70 472.71 605.27
  C 476.31 607.13 477.71 611.13 477.82 615.09
  Q 478.00 622.19 477.59 626.21
  Q 476.72 634.80 467.84 635.61
  Q 463.10 636.04 460.13 632.41
  Q 459.75 631.94 459.75 632.54
  L 459.74 647.46
  Q 459.74 647.65 459.54 647.65
  L 453.61 647.65
  A 0.36 0.35 -0.0 0 1 453.25 647.30
  L 453.25 605.06
  Q 453.25 604.37 453.94 604.37
  L 459.04 604.34
  Q 459.74 604.34 459.75 605.04
  L 459.75 607.29
  Q 459.75 607.87 460.16 607.46
  Z
  M 471.3680 615.2501
  A 5.48 5.48 0.0 0 0 465.8976 609.7606
  L 465.2376 609.7594
  A 5.48 5.48 0.0 0 0 459.7481 615.2299
  L 459.7320 624.4499
  A 5.48 5.48 0.0 0 0 465.2024 629.9394
  L 465.8624 629.9406
  A 5.48 5.48 0.0 0 0 471.3519 624.4701
  L 471.3680 615.2501
  Z"
/>
<path fill="#ffffff" d="
  M 502.51 633.66
  Q 497.30 637.07 490.03 634.77
  C 484.94 633.16 483.49 628.23 484.53 623.45
  Q 485.84 617.37 492.65 617.08
  Q 497.18 616.88 502.19 617.03
  Q 502.83 617.04 502.85 616.40
  C 503.15 608.48 495.86 608.35 490.95 611.39
  Q 490.33 611.77 489.73 611.36
  L 486.24 608.93
  Q 485.57 608.46 486.18 607.91
  C 491.73 602.91 503.76 601.85 507.88 609.39
  Q 509.43 612.23 509.25 618.39
  Q 509.02 626.14 509.31 634.34
  A 0.61 0.61 0.0 0 1 508.70 634.98
  L 503.57 635.01
  A 0.83 0.82 66.7 0 1 503.00 634.78
  Q 502.58 634.36 502.82 633.96
  Q 503.28 633.16 502.51 633.66
  Z
  M 500.99 629.87
  A 2.34 2.34 0.0 0 0 502.78 627.61
  L 502.82 622.58
  Q 502.83 621.96 502.21 621.96
  Q 498.51 621.98 494.61 621.96
  C 493.08 621.95 491.37 622.54 490.81 624.13
  C 488.31 631.23 497.20 630.77 500.99 629.87
  Z"
/>
<path fill="#ffffff" d="
  M 563.49 633.71
  Q 558.28 637.02 551.12 634.81
  C 545.98 633.23 544.45 628.19 545.54 623.37
  Q 546.86 617.53 553.34 617.09
  Q 557.43 616.81 561.76 617.10
  Q 564.62 617.29 563.87 614.53
  Q 563.67 613.77 563.42 613.08
  Q 562.26 609.84 558.82 609.65
  Q 555.11 609.45 551.94 611.39
  Q 551.33 611.76 550.74 611.36
  L 547.17 608.90
  Q 546.49 608.44 547.12 607.91
  Q 553.55 602.42 562.44 604.56
  Q 567.16 605.70 569.22 610.20
  Q 570.29 612.55 570.19 617.46
  Q 569.98 626.83 570.23 634.22
  Q 570.26 634.99 569.49 634.99
  L 564.62 635.00
  Q 564.02 635.00 563.79 634.45
  Q 563.69 634.22 563.81 634.02
  Q 564.28 633.20 563.49 633.71
  Z
  M 562.36 629.72
  A 2.06 2.04 -8.9 0 0 563.78 627.79
  L 563.85 622.33
  A 0.35 0.34 0.8 0 0 563.50 621.98
  L 555.29 621.96
  Q 552.49 621.95 551.64 624.62
  Q 551.43 625.27 551.44 625.92
  Q 551.45 629.60 555.09 630.16
  Q 559.06 630.78 562.36 629.72
  Z"
/>
<path fill="#ffffff" d="
  M 527.82 624.62
  L 534.59 604.57
  A 0.33 0.33 0.0 0 1 534.91 604.34
  L 541.07 604.41
  A 0.33 0.33 0.0 0 1 541.37 604.86
  L 530.14 634.79
  A 0.33 0.33 0.0 0 1 529.83 635.00
  L 525.14 635.00
  A 0.33 0.33 0.0 0 1 524.83 634.79
  L 513.63 604.97
  A 0.33 0.33 0.0 0 1 513.93 604.53
  L 520.08 604.46
  A 0.33 0.33 0.0 0 1 520.40 604.69
  L 527.20 624.62
  A 0.33 0.33 0.0 0 0 527.82 624.62
  Z"
/>
</g>
<g>
<ellipse fill="#839380" cx="0.00" cy="0.00" transform="translate(448.33,276.49) rotate(-43.8)" rx="166.14" ry="128.75"/>
<path fill="#839380" d="
  M 287.83 377.44
  A 0.16 0.14 -6.9 0 1 287.94 377.32
  Q 288.26 377.24 288.42 377.55
  Q 308.41 417.31 348.80 436.32
  Q 349.30 436.55 348.76 436.67
  Q 336.48 439.29 324.35 442.57
  C 300.73 448.95 277.06 459.33 257.91 474.72
  Q 257.57 474.99 257.26 474.69
  L 250.03 467.48
  A 0.45 0.44 42.5 0 1 250.00 466.88
  C 270.39 441.84 281.21 409.41 287.83 377.44
  Z"
/>
<path fill="#839380" d="
  M 240.87 493.79
  A 0.55 0.55 0.0 0 1 240.87 494.57
  L 143.80 591.65
  A 8.04 7.05 -45.0 0 1 133.13 592.35
  L 132.46 591.68
  A 8.04 7.05 -45.0 0 1 133.16 581.01
  L 230.24 483.94
  A 0.55 0.55 0.0 0 1 231.02 483.94
  L 240.87 493.79
  Z"
/>
<path fill="#839380" d="
  M 300.64 542.21
  A 0.27 0.27 0.0 0 1 300.37 541.94
  L 300.37 541.76
  A 7.03 6.25 -89.9 0 1 306.64 534.74
  L 306.92 534.74
  A 7.03 6.25 -89.9 0 1 313.15 541.78
  L 313.15 541.96
  A 0.27 0.27 0.0 0 1 312.88 542.23
  L 300.64 542.21
  Z"
/>
<path fill="#839380" d="
  M 473.63 542.21
  A 0.27 0.27 0.0 0 1 473.36 541.94
  L 473.36 541.75
  A 7.02 6.27 -90.0 0 1 479.63 534.73
  L 479.87 534.73
  A 7.02 6.27 -90.0 0 1 486.14 541.75
  L 486.14 541.94
  A 0.27 0.27 0.0 0 1 485.87 542.21
  L 473.63 542.21
  Z"
/>
<path fill="#839380" d="
  M 566.63 542.23
  A 0.41 0.41 0.0 0 1 566.22 541.82
  L 566.22 541.55
  A 6.80 6.33 89.9 0 1 572.53 534.74
  L 572.59 534.74
  A 6.80 6.33 89.9 0 1 578.94 541.53
  L 578.94 541.80
  A 0.41 0.41 0.0 0 1 578.53 542.21
  L 566.63 542.23
  Z"
/>
<rect fill="#839380" x="412.64" y="535.01" width="12.48" height="19.52" rx="5.85"/>
<rect fill="#839380" x="-8.49" y="-15.60" transform="translate(429.33,613.66) rotate(-0.1)" width="16.98" height="31.20" rx="8.03"/>
<rect fill="#839380" x="-5.81" y="-10.09" transform="translate(465.55,619.85) rotate(0.1)" width="11.62" height="20.18" rx="5.48"/>
<path fill="#839380" d="
  M 500.99 629.87
  C 497.20 630.77 488.31 631.23 490.81 624.13
  C 491.37 622.54 493.08 621.95 494.61 621.96
  Q 498.51 621.98 502.21 621.96
  Q 502.83 621.96 502.82 622.58
  L 502.78 627.61
  A 2.34 2.34 0.0 0 1 500.99 629.87
  Z"
/>
<path fill="#839380" d="
  M 562.36 629.72
  Q 559.06 630.78 555.09 630.16
  Q 551.45 629.60 551.44 625.92
  Q 551.43 625.27 551.64 624.62
  Q 552.49 621.95 555.29 621.96
  L 563.50 621.98
  A 0.35 0.34 0.8 0 1 563.85 622.33
  L 563.78 627.79
  A 2.06 2.04 -8.9 0 1 562.36 629.72
  Z"
/>
</g>
</svg>
